<svg width="118" height="40" viewBox="0 0 118 40" fill="none" xmlns="http://www.w3.org/2000/svg">
<rect width="118" height="40" fill="#F6F6F6"/>
<path d="M0.5 5C0.5 2.51472 2.51472 0.5 5 0.5H113C115.485 0.5 117.5 2.51472 117.5 5V35C117.5 37.4853 115.485 39.5 113 39.5H5C2.51472 39.5 0.5 37.4853 0.5 35V5Z" fill="#525252" stroke="#C4C4C4"/>
<path d="M44.916 22.012H40.842L40.142 24H38.476L41.962 14.256H43.81L47.296 24H45.616L44.916 22.012ZM44.468 20.71L42.886 16.188L41.29 20.71H44.468ZM48.2797 20.108C48.2797 19.3333 48.4384 18.6473 48.7557 18.05C49.0824 17.4527 49.5211 16.9907 50.0717 16.664C50.6317 16.328 51.2524 16.16 51.9337 16.16C52.4377 16.16 52.9324 16.272 53.4177 16.496C53.9124 16.7107 54.3044 17 54.5937 17.364V13.64H56.2037V24H54.5937V22.838C54.3324 23.2113 53.9684 23.5193 53.5017 23.762C53.0444 24.0047 52.5171 24.126 51.9197 24.126C51.2477 24.126 50.6317 23.958 50.0717 23.622C49.5211 23.2767 49.0824 22.8007 48.7557 22.194C48.4384 21.578 48.2797 20.8827 48.2797 20.108ZM54.5937 20.136C54.5937 19.604 54.4817 19.142 54.2577 18.75C54.0431 18.358 53.7584 18.0593 53.4037 17.854C53.0491 17.6487 52.6664 17.546 52.2557 17.546C51.8451 17.546 51.4624 17.6487 51.1077 17.854C50.7531 18.05 50.4637 18.344 50.2397 18.736C50.0251 19.1187 49.9177 19.576 49.9177 20.108C49.9177 20.64 50.0251 21.1067 50.2397 21.508C50.4637 21.9093 50.7531 22.2173 51.1077 22.432C51.4717 22.6373 51.8544 22.74 52.2557 22.74C52.6664 22.74 53.0491 22.6373 53.4037 22.432C53.7584 22.2267 54.0431 21.928 54.2577 21.536C54.4817 21.1347 54.5937 20.668 54.5937 20.136ZM57.768 20.108C57.768 19.3333 57.9267 18.6473 58.244 18.05C58.5707 17.4527 59.0093 16.9907 59.56 16.664C60.12 16.328 60.7407 16.16 61.422 16.16C61.926 16.16 62.4207 16.272 62.906 16.496C63.4007 16.7107 63.7927 17 64.082 17.364V13.64H65.692V24H64.082V22.838C63.8207 23.2113 63.4567 23.5193 62.99 23.762C62.5327 24.0047 62.0053 24.126 61.408 24.126C60.736 24.126 60.12 23.958 59.56 23.622C59.0093 23.2767 58.5707 22.8007 58.244 22.194C57.9267 21.578 57.768 20.8827 57.768 20.108ZM64.082 20.136C64.082 19.604 63.97 19.142 63.746 18.75C63.5313 18.358 63.2467 18.0593 62.892 17.854C62.5373 17.6487 62.1547 17.546 61.744 17.546C61.3333 17.546 60.9507 17.6487 60.596 17.854C60.2413 18.05 59.952 18.344 59.728 18.736C59.5133 19.1187 59.406 19.576 59.406 20.108C59.406 20.64 59.5133 21.1067 59.728 21.508C59.952 21.9093 60.2413 22.2173 60.596 22.432C60.96 22.6373 61.3427 22.74 61.744 22.74C62.1547 22.74 62.5373 22.6373 62.892 22.432C63.2467 22.2267 63.5313 21.928 63.746 21.536C63.97 21.1347 64.082 20.668 64.082 20.136ZM79.419 24H77.823L73.021 16.734V24H71.425V14.256H73.021L77.823 21.508V14.256H79.419V24ZM88.5848 19.954C88.5848 20.2433 88.5662 20.5047 88.5288 20.738H82.6348C82.6815 21.354 82.9102 21.8487 83.3208 22.222C83.7315 22.5953 84.2355 22.782 84.8328 22.782C85.6915 22.782 86.2982 22.4227 86.6528 21.704H88.3748C88.1415 22.4133 87.7168 22.9967 87.1008 23.454C86.4942 23.902 85.7382 24.126 84.8328 24.126C84.0955 24.126 83.4328 23.9627 82.8448 23.636C82.2662 23.3 81.8088 22.8333 81.4728 22.236C81.1462 21.6293 80.9828 20.9293 80.9828 20.136C80.9828 19.3427 81.1415 18.6473 81.4588 18.05C81.7855 17.4433 82.2382 16.9767 82.8168 16.65C83.4048 16.3233 84.0768 16.16 84.8328 16.16C85.5608 16.16 86.2095 16.3187 86.7788 16.636C87.3482 16.9533 87.7915 17.4013 88.1088 17.98C88.4262 18.5493 88.5848 19.2073 88.5848 19.954ZM86.9188 19.45C86.9095 18.862 86.6995 18.3907 86.2888 18.036C85.8782 17.6813 85.3695 17.504 84.7628 17.504C84.2122 17.504 83.7408 17.6813 83.3488 18.036C82.9568 18.3813 82.7235 18.8527 82.6488 19.45H86.9188ZM100.515 16.286L98.1215 24H96.4415L94.8875 18.302L93.3335 24H91.6535L89.2455 16.286H90.8695L92.4795 22.488L94.1175 16.286H95.7835L97.3515 22.46L98.9475 16.286H100.515Z" fill="#FAFAFA"/>
<path d="M26.2903 18.8238C26.9624 18.8238 27.4665 19.3279 27.4665 20C27.4665 20.3361 27.3405 20.6301 27.1304 20.8401C26.9204 21.0502 26.6264 21.1762 26.2903 21.1762L20.6615 21.1762L20.6615 26.805C20.6615 27.1411 20.5354 27.4351 20.3254 27.6452C20.1154 27.8552 19.8213 27.9812 19.4853 27.9812C18.8132 27.9812 18.3091 27.4771 18.3091 26.805L18.3091 21.1762L12.6803 21.1762C12.0082 21.1762 11.5041 20.6721 11.5041 20C11.5041 19.3279 12.0082 18.8238 12.6803 18.8238L18.3091 18.8238L18.3091 13.195C18.3091 12.5229 18.8132 12.0188 19.4853 12.0188C20.1574 12.0188 20.6615 12.5229 20.6615 13.195L20.6615 18.8238L26.2903 18.8238Z" fill="#FAFAFA"/>
</svg>
