<svg width="336" height="100" viewBox="0 0 336 100" fill="none" xmlns="http://www.w3.org/2000/svg">
<circle cx="50" cy="50" r="50" fill="#C4C4C4"/>
<path d="M26.8291 59H25.5551L20.4311 51.23V59H19.1571V49.228H20.4311L25.5551 56.984V49.228H26.8291V59ZM32.3469 59.126C31.6282 59.126 30.9749 58.9627 30.3869 58.636C29.8082 58.3093 29.3509 57.8473 29.0149 57.25C28.6882 56.6433 28.5249 55.9433 28.5249 55.15C28.5249 54.366 28.6929 53.6753 29.0289 53.078C29.3742 52.4713 29.8409 52.0093 30.4289 51.692C31.0169 51.3653 31.6749 51.202 32.4029 51.202C33.1309 51.202 33.7889 51.3653 34.3769 51.692C34.9649 52.0093 35.4269 52.4667 35.7629 53.064C36.1082 53.6613 36.2809 54.3567 36.2809 55.15C36.2809 55.9433 36.1035 56.6433 35.7489 57.25C35.4035 57.8473 34.9322 58.3093 34.3349 58.636C33.7375 58.9627 33.0749 59.126 32.3469 59.126ZM32.3469 58.006C32.8042 58.006 33.2335 57.8987 33.6349 57.684C34.0362 57.4693 34.3582 57.1473 34.6009 56.718C34.8529 56.2887 34.9789 55.766 34.9789 55.15C34.9789 54.534 34.8575 54.0113 34.6149 53.582C34.3722 53.1527 34.0549 52.8353 33.6629 52.63C33.2709 52.4153 32.8462 52.308 32.3889 52.308C31.9222 52.308 31.4929 52.4153 31.1009 52.63C30.7182 52.8353 30.4102 53.1527 30.1769 53.582C29.9435 54.0113 29.8269 54.534 29.8269 55.15C29.8269 55.7753 29.9389 56.3027 30.1629 56.732C30.3962 57.1613 30.7042 57.4833 31.0869 57.698C31.4695 57.9033 31.8895 58.006 32.3469 58.006ZM40.8119 57.824L43.1919 51.328H44.5499L41.5399 59H40.0559L37.0459 51.328H38.4179L40.8119 57.824ZM47.1196 57.236L45.5516 61.002H44.6976L45.7196 57.236H47.1196ZM51.9474 57.978C53.1327 57.026 54.0614 56.2467 54.7334 55.64C55.4054 55.024 55.9701 54.3847 56.4274 53.722C56.8941 53.05 57.1274 52.392 57.1274 51.748C57.1274 51.1413 56.9781 50.6653 56.6794 50.32C56.3901 49.9653 55.9187 49.788 55.2654 49.788C54.6307 49.788 54.1361 49.9887 53.7814 50.39C53.4361 50.782 53.2494 51.3093 53.2214 51.972H51.9894C52.0267 50.9267 52.3441 50.1193 52.9414 49.55C53.5387 48.9807 54.3087 48.696 55.2514 48.696C56.2127 48.696 56.9734 48.962 57.5334 49.494C58.1027 50.026 58.3874 50.7587 58.3874 51.692C58.3874 52.4667 58.1541 53.2227 57.6874 53.96C57.2301 54.688 56.7074 55.332 56.1194 55.892C55.5314 56.4427 54.7801 57.0867 53.8654 57.824H58.6814V58.888H51.9474V57.978ZM60.1541 53.834C60.1541 52.2287 60.4155 50.978 60.9381 50.082C61.4608 49.1767 62.3755 48.724 63.6821 48.724C64.9795 48.724 65.8895 49.1767 66.4121 50.082C66.9348 50.978 67.1961 52.2287 67.1961 53.834C67.1961 55.4673 66.9348 56.7367 66.4121 57.642C65.8895 58.5473 64.9795 59 63.6821 59C62.3755 59 61.4608 58.5473 60.9381 57.642C60.4155 56.7367 60.1541 55.4673 60.1541 53.834ZM65.9361 53.834C65.9361 53.022 65.8801 52.336 65.7681 51.776C65.6655 51.2067 65.4461 50.7493 65.1101 50.404C64.7835 50.0587 64.3075 49.886 63.6821 49.886C63.0475 49.886 62.5621 50.0587 62.2261 50.404C61.8995 50.7493 61.6801 51.2067 61.5681 51.776C61.4655 52.336 61.4141 53.022 61.4141 53.834C61.4141 54.674 61.4655 55.3787 61.5681 55.948C61.6801 56.5173 61.8995 56.9747 62.2261 57.32C62.5621 57.6653 63.0475 57.838 63.6821 57.838C64.3075 57.838 64.7835 57.6653 65.1101 57.32C65.4461 56.9747 65.6655 56.5173 65.7681 55.948C65.8801 55.3787 65.9361 54.674 65.9361 53.834ZM68.7911 57.978C69.9765 57.026 70.9051 56.2467 71.5771 55.64C72.2491 55.024 72.8138 54.3847 73.2711 53.722C73.7378 53.05 73.9711 52.392 73.9711 51.748C73.9711 51.1413 73.8218 50.6653 73.5231 50.32C73.2338 49.9653 72.7625 49.788 72.1091 49.788C71.4745 49.788 70.9798 49.9887 70.6251 50.39C70.2798 50.782 70.0931 51.3093 70.0651 51.972H68.8331C68.8705 50.9267 69.1878 50.1193 69.7851 49.55C70.3825 48.9807 71.1525 48.696 72.0951 48.696C73.0565 48.696 73.8171 48.962 74.3771 49.494C74.9465 50.026 75.2311 50.7587 75.2311 51.692C75.2311 52.4667 74.9978 53.2227 74.5311 53.96C74.0738 54.688 73.5511 55.332 72.9631 55.892C72.3751 56.4427 71.6238 57.0867 70.7091 57.824H75.5251V58.888H68.7911V57.978ZM76.9979 53.834C76.9979 52.2287 77.2592 50.978 77.7819 50.082C78.3045 49.1767 79.2192 48.724 80.5259 48.724C81.8232 48.724 82.7332 49.1767 83.2559 50.082C83.7785 50.978 84.0399 52.2287 84.0399 53.834C84.0399 55.4673 83.7785 56.7367 83.2559 57.642C82.7332 58.5473 81.8232 59 80.5259 59C79.2192 59 78.3045 58.5473 77.7819 57.642C77.2592 56.7367 76.9979 55.4673 76.9979 53.834ZM82.7799 53.834C82.7799 53.022 82.7239 52.336 82.6119 51.776C82.5092 51.2067 82.2899 50.7493 81.9539 50.404C81.6272 50.0587 81.1512 49.886 80.5259 49.886C79.8912 49.886 79.4059 50.0587 79.0699 50.404C78.7432 50.7493 78.5239 51.2067 78.4119 51.776C78.3092 52.336 78.2579 53.022 78.2579 53.834C78.2579 54.674 78.3092 55.3787 78.4119 55.948C78.5239 56.5173 78.7432 56.9747 79.0699 57.32C79.4059 57.6653 79.8912 57.838 80.5259 57.838C81.1512 57.838 81.6272 57.6653 81.9539 57.32C82.2899 56.9747 82.5092 56.5173 82.6119 55.948C82.7239 55.3787 82.7799 54.674 82.7799 53.834ZM21.7157 74.834C21.7157 73.2287 21.977 71.978 22.4997 71.082C23.0223 70.1767 23.937 69.724 25.2437 69.724C26.541 69.724 27.451 70.1767 27.9737 71.082C28.4963 71.978 28.7577 73.2287 28.7577 74.834C28.7577 76.4673 28.4963 77.7367 27.9737 78.642C27.451 79.5473 26.541 80 25.2437 80C23.937 80 23.0223 79.5473 22.4997 78.642C21.977 77.7367 21.7157 76.4673 21.7157 74.834ZM27.4977 74.834C27.4977 74.022 27.4417 73.336 27.3297 72.776C27.227 72.2067 27.0077 71.7493 26.6717 71.404C26.345 71.0587 25.869 70.886 25.2437 70.886C24.609 70.886 24.1237 71.0587 23.7877 71.404C23.461 71.7493 23.2417 72.2067 23.1297 72.776C23.027 73.336 22.9757 74.022 22.9757 74.834C22.9757 75.674 23.027 76.3787 23.1297 76.948C23.2417 77.5173 23.461 77.9747 23.7877 78.32C24.1237 78.6653 24.609 78.838 25.2437 78.838C25.869 78.838 26.345 78.6653 26.6717 78.32C27.0077 77.9747 27.227 77.5173 27.3297 76.948C27.4417 76.3787 27.4977 75.674 27.4977 74.834ZM30.3527 78.978C31.538 78.026 32.4667 77.2467 33.1387 76.64C33.8107 76.024 34.3753 75.3847 34.8327 74.722C35.2993 74.05 35.5327 73.392 35.5327 72.748C35.5327 72.1413 35.3833 71.6653 35.0847 71.32C34.7953 70.9653 34.324 70.788 33.6707 70.788C33.036 70.788 32.5413 70.9887 32.1867 71.39C31.8413 71.782 31.6547 72.3093 31.6267 72.972H30.3947C30.432 71.9267 30.7493 71.1193 31.3467 70.55C31.944 69.9807 32.714 69.696 33.6567 69.696C34.618 69.696 35.3787 69.962 35.9387 70.494C36.508 71.026 36.7927 71.7587 36.7927 72.692C36.7927 73.4667 36.5593 74.2227 36.0927 74.96C35.6353 75.688 35.1127 76.332 34.5247 76.892C33.9367 77.4427 33.1853 78.0867 32.2707 78.824H37.0867V79.888H30.3527V78.978ZM39.1754 80.084C38.9327 80.084 38.7274 80 38.5594 79.832C38.3914 79.664 38.3074 79.4587 38.3074 79.216C38.3074 78.9733 38.3914 78.768 38.5594 78.6C38.7274 78.432 38.9327 78.348 39.1754 78.348C39.4087 78.348 39.6047 78.432 39.7634 78.6C39.9314 78.768 40.0154 78.9733 40.0154 79.216C40.0154 79.4587 39.9314 79.664 39.7634 79.832C39.6047 80 39.4087 80.084 39.1754 80.084ZM39.1754 74.092C38.9327 74.092 38.7274 74.008 38.5594 73.84C38.3914 73.672 38.3074 73.4667 38.3074 73.224C38.3074 72.9813 38.3914 72.776 38.5594 72.608C38.7274 72.44 38.9327 72.356 39.1754 72.356C39.4087 72.356 39.6047 72.44 39.7634 72.608C39.9314 72.776 40.0154 72.9813 40.0154 73.224C40.0154 73.4667 39.9314 73.672 39.7634 73.84C39.6047 74.008 39.4087 74.092 39.1754 74.092ZM41.5399 74.834C41.5399 73.2287 41.8012 71.978 42.3239 71.082C42.8465 70.1767 43.7612 69.724 45.0679 69.724C46.3652 69.724 47.2752 70.1767 47.7979 71.082C48.3205 71.978 48.5819 73.2287 48.5819 74.834C48.5819 76.4673 48.3205 77.7367 47.7979 78.642C47.2752 79.5473 46.3652 80 45.0679 80C43.7612 80 42.8465 79.5473 42.3239 78.642C41.8012 77.7367 41.5399 76.4673 41.5399 74.834ZM47.3219 74.834C47.3219 74.022 47.2659 73.336 47.1539 72.776C47.0512 72.2067 46.8319 71.7493 46.4959 71.404C46.1692 71.0587 45.6932 70.886 45.0679 70.886C44.4332 70.886 43.9479 71.0587 43.6119 71.404C43.2852 71.7493 43.0659 72.2067 42.9539 72.776C42.8512 73.336 42.7999 74.022 42.7999 74.834C42.7999 75.674 42.8512 76.3787 42.9539 76.948C43.0659 77.5173 43.2852 77.9747 43.6119 78.32C43.9479 78.6653 44.4332 78.838 45.0679 78.838C45.6932 78.838 46.1692 78.6653 46.4959 78.32C46.8319 77.9747 47.0512 77.5173 47.1539 76.948C47.2659 76.3787 47.3219 75.674 47.3219 74.834ZM50.3309 74.834C50.3309 73.2287 50.5922 71.978 51.1149 71.082C51.6376 70.1767 52.5522 69.724 53.8589 69.724C55.1562 69.724 56.0662 70.1767 56.5889 71.082C57.1116 71.978 57.3729 73.2287 57.3729 74.834C57.3729 76.4673 57.1116 77.7367 56.5889 78.642C56.0662 79.5473 55.1562 80 53.8589 80C52.5522 80 51.6376 79.5473 51.1149 78.642C50.5922 77.7367 50.3309 76.4673 50.3309 74.834ZM56.1129 74.834C56.1129 74.022 56.0569 73.336 55.9449 72.776C55.8422 72.2067 55.6229 71.7493 55.2869 71.404C54.9602 71.0587 54.4842 70.886 53.8589 70.886C53.2242 70.886 52.7389 71.0587 52.4029 71.404C52.0762 71.7493 51.8569 72.2067 51.7449 72.776C51.6422 73.336 51.5909 74.022 51.5909 74.834C51.5909 75.674 51.6422 76.3787 51.7449 76.948C51.8569 77.5173 52.0762 77.9747 52.4029 78.32C52.7389 78.6653 53.2242 78.838 53.8589 78.838C54.4842 78.838 54.9602 78.6653 55.2869 78.32C55.6229 77.9747 55.8422 77.5173 55.9449 76.948C56.0569 76.3787 56.1129 75.674 56.1129 74.834ZM69.5883 73.098C69.5883 73.91 69.3083 74.5867 68.7483 75.128C68.1977 75.66 67.353 75.926 66.2143 75.926H64.3383V80H63.0643V70.242H66.2143C67.3157 70.242 68.151 70.508 68.7203 71.04C69.299 71.572 69.5883 72.258 69.5883 73.098ZM66.2143 74.876C66.9237 74.876 67.4463 74.722 67.7823 74.414C68.1183 74.106 68.2863 73.6673 68.2863 73.098C68.2863 71.894 67.5957 71.292 66.2143 71.292H64.3383V74.876H66.2143ZM81.0698 70.312V80H79.7958V72.776L76.5758 80H75.6798L72.4458 72.762V80H71.1718V70.312H72.5438L76.1278 78.32L79.7118 70.312H81.0698Z" fill="black"/>
<path d="M35.17 36.89C35.85 36.35 36.16 36.1 36.1 36.14C38.06 34.52 39.6 33.19 40.72 32.15C41.86 31.11 42.82 30.02 43.6 28.88C44.38 27.74 44.77 26.63 44.77 25.55C44.77 24.73 44.58 24.09 44.2 23.63C43.82 23.17 43.25 22.94 42.49 22.94C41.73 22.94 41.13 23.23 40.69 23.81C40.27 24.37 40.06 25.17 40.06 26.21H35.11C35.15 24.51 35.51 23.09 36.19 21.95C36.89 20.81 37.8 19.97 38.92 19.43C40.06 18.89 41.32 18.62 42.7 18.62C45.08 18.62 46.87 19.23 48.07 20.45C49.29 21.67 49.9 23.26 49.9 25.22C49.9 27.36 49.17 29.35 47.71 31.19C46.25 33.01 44.39 34.79 42.13 36.53H50.23V40.7H35.17V36.89ZM52.6687 25.28C52.7487 23.14 53.4487 21.49 54.7687 20.33C56.0887 19.17 57.8787 18.59 60.1387 18.59C61.6387 18.59 62.9187 18.85 63.9787 19.37C65.0587 19.89 65.8687 20.6 66.4087 21.5C66.9687 22.4 67.2487 23.41 67.2487 24.53C67.2487 25.85 66.9187 26.93 66.2587 27.77C65.5987 28.59 64.8287 29.15 63.9487 29.45V29.57C65.0887 29.95 65.9887 30.58 66.6487 31.46C67.3087 32.34 67.6387 33.47 67.6387 34.85C67.6387 36.09 67.3487 37.19 66.7687 38.15C66.2087 39.09 65.3787 39.83 64.2787 40.37C63.1987 40.91 61.9087 41.18 60.4087 41.18C58.0087 41.18 56.0887 40.59 54.6487 39.41C53.2287 38.23 52.4787 36.45 52.3987 34.07H57.3787C57.3987 34.95 57.6487 35.65 58.1287 36.17C58.6087 36.67 59.3087 36.92 60.2287 36.92C61.0087 36.92 61.6087 36.7 62.0287 36.26C62.4687 35.8 62.6887 35.2 62.6887 34.46C62.6887 33.5 62.3787 32.81 61.7587 32.39C61.1587 31.95 60.1887 31.73 58.8487 31.73H57.8887V27.56H58.8487C59.8687 27.56 60.6887 27.39 61.3087 27.05C61.9487 26.69 62.2687 26.06 62.2687 25.16C62.2687 24.44 62.0687 23.88 61.6687 23.48C61.2687 23.08 60.7187 22.88 60.0187 22.88C59.2587 22.88 58.6887 23.11 58.3087 23.57C57.9487 24.03 57.7387 24.6 57.6787 25.28H52.6687Z" fill="black"/>
<path d="M129.716 55.084C128.94 55.084 128.232 54.904 127.592 54.544C126.952 54.176 126.444 53.668 126.068 53.02C125.7 52.364 125.516 51.628 125.516 50.812C125.516 49.996 125.7 49.264 126.068 48.616C126.444 47.96 126.952 47.452 127.592 47.092C128.232 46.724 128.94 46.54 129.716 46.54C130.5 46.54 131.212 46.724 131.852 47.092C132.492 47.452 132.996 47.956 133.364 48.604C133.732 49.252 133.916 49.988 133.916 50.812C133.916 51.636 133.732 52.372 133.364 53.02C132.996 53.668 132.492 54.176 131.852 54.544C131.212 54.904 130.5 55.084 129.716 55.084ZM129.716 54.136C130.3 54.136 130.824 54 131.288 53.728C131.76 53.456 132.128 53.068 132.392 52.564C132.664 52.06 132.8 51.476 132.8 50.812C132.8 50.14 132.664 49.556 132.392 49.06C132.128 48.556 131.764 48.168 131.3 47.896C130.836 47.624 130.308 47.488 129.716 47.488C129.124 47.488 128.596 47.624 128.132 47.896C127.668 48.168 127.3 48.556 127.028 49.06C126.764 49.556 126.632 50.14 126.632 50.812C126.632 51.476 126.764 52.06 127.028 52.564C127.3 53.068 127.668 53.456 128.132 53.728C128.604 54 129.132 54.136 129.716 54.136ZM140.95 49.084C140.95 49.78 140.71 50.36 140.23 50.824C139.758 51.28 139.034 51.508 138.058 51.508H136.45V55H135.358V46.636H138.058C139.002 46.636 139.718 46.864 140.206 47.32C140.702 47.776 140.95 48.364 140.95 49.084ZM138.058 50.608C138.666 50.608 139.114 50.476 139.402 50.212C139.69 49.948 139.834 49.572 139.834 49.084C139.834 48.052 139.242 47.536 138.058 47.536H136.45V50.608H138.058ZM144.959 55.084C144.407 55.084 143.911 54.988 143.471 54.796C143.039 54.596 142.699 54.324 142.451 53.98C142.203 53.628 142.075 53.224 142.067 52.768H143.231C143.271 53.16 143.431 53.492 143.711 53.764C143.999 54.028 144.415 54.16 144.959 54.16C145.479 54.16 145.887 54.032 146.183 53.776C146.487 53.512 146.639 53.176 146.639 52.768C146.639 52.448 146.551 52.188 146.375 51.988C146.199 51.788 145.979 51.636 145.715 51.532C145.451 51.428 145.095 51.316 144.647 51.196C144.095 51.052 143.651 50.908 143.315 50.764C142.987 50.62 142.703 50.396 142.463 50.092C142.231 49.78 142.115 49.364 142.115 48.844C142.115 48.388 142.231 47.984 142.463 47.632C142.695 47.28 143.019 47.008 143.435 46.816C143.859 46.624 144.343 46.528 144.887 46.528C145.671 46.528 146.311 46.724 146.807 47.116C147.311 47.508 147.595 48.028 147.659 48.676H146.459C146.419 48.356 146.251 48.076 145.955 47.836C145.659 47.588 145.267 47.464 144.779 47.464C144.323 47.464 143.951 47.584 143.663 47.824C143.375 48.056 143.231 48.384 143.231 48.808C143.231 49.112 143.315 49.36 143.483 49.552C143.659 49.744 143.871 49.892 144.119 49.996C144.375 50.092 144.731 50.204 145.187 50.332C145.739 50.484 146.183 50.636 146.519 50.788C146.855 50.932 147.143 51.16 147.383 51.472C147.623 51.776 147.743 52.192 147.743 52.72C147.743 53.128 147.635 53.512 147.419 53.872C147.203 54.232 146.883 54.524 146.459 54.748C146.035 54.972 145.535 55.084 144.959 55.084ZM157.834 46.696V55H156.742V48.808L153.982 55H153.214L150.442 48.796V55H149.35V46.696H150.526L153.598 53.56L156.67 46.696H157.834ZM125.456 65.32V64.324H127.712V73H126.608V65.32H125.456ZM141.451 64.696V73H140.359V66.808L137.599 73H136.831L134.059 66.796V73H132.967V64.696H134.143L137.215 71.56L140.287 64.696H141.451ZM142.895 69.688C142.895 69.016 143.031 68.428 143.303 67.924C143.575 67.412 143.947 67.016 144.419 66.736C144.899 66.456 145.431 66.316 146.015 66.316C146.591 66.316 147.091 66.44 147.515 66.688C147.939 66.936 148.255 67.248 148.463 67.624V66.424H149.567V73H148.463V71.776C148.247 72.16 147.923 72.48 147.491 72.736C147.067 72.984 146.571 73.108 146.003 73.108C145.419 73.108 144.891 72.964 144.419 72.676C143.947 72.388 143.575 71.984 143.303 71.464C143.031 70.944 142.895 70.352 142.895 69.688ZM148.463 69.7C148.463 69.204 148.363 68.772 148.163 68.404C147.963 68.036 147.691 67.756 147.347 67.564C147.011 67.364 146.639 67.264 146.231 67.264C145.823 67.264 145.451 67.36 145.115 67.552C144.779 67.744 144.511 68.024 144.311 68.392C144.111 68.76 144.011 69.192 144.011 69.688C144.011 70.192 144.111 70.632 144.311 71.008C144.511 71.376 144.779 71.66 145.115 71.86C145.451 72.052 145.823 72.148 146.231 72.148C146.639 72.148 147.011 72.052 147.347 71.86C147.691 71.66 147.963 71.376 148.163 71.008C148.363 70.632 148.463 70.196 148.463 69.7ZM151.976 65.356C151.768 65.356 151.592 65.284 151.448 65.14C151.304 64.996 151.232 64.82 151.232 64.612C151.232 64.404 151.304 64.228 151.448 64.084C151.592 63.94 151.768 63.868 151.976 63.868C152.176 63.868 152.344 63.94 152.48 64.084C152.624 64.228 152.696 64.404 152.696 64.612C152.696 64.82 152.624 64.996 152.48 65.14C152.344 65.284 152.176 65.356 151.976 65.356ZM152.504 66.424V73H151.412V66.424H152.504ZM157.569 66.304C158.369 66.304 159.017 66.548 159.513 67.036C160.009 67.516 160.257 68.212 160.257 69.124V73H159.177V69.28C159.177 68.624 159.013 68.124 158.685 67.78C158.357 67.428 157.909 67.252 157.341 67.252C156.765 67.252 156.305 67.432 155.961 67.792C155.625 68.152 155.457 68.676 155.457 69.364V73H154.365V66.424H155.457V67.36C155.673 67.024 155.965 66.764 156.333 66.58C156.709 66.396 157.121 66.304 157.569 66.304ZM167.892 73.084C167.34 73.084 166.844 72.988 166.404 72.796C165.972 72.596 165.632 72.324 165.384 71.98C165.136 71.628 165.008 71.224 165 70.768H166.164C166.204 71.16 166.364 71.492 166.644 71.764C166.932 72.028 167.348 72.16 167.892 72.16C168.412 72.16 168.82 72.032 169.116 71.776C169.42 71.512 169.572 71.176 169.572 70.768C169.572 70.448 169.484 70.188 169.308 69.988C169.132 69.788 168.912 69.636 168.648 69.532C168.384 69.428 168.028 69.316 167.58 69.196C167.028 69.052 166.584 68.908 166.248 68.764C165.92 68.62 165.636 68.396 165.396 68.092C165.164 67.78 165.048 67.364 165.048 66.844C165.048 66.388 165.164 65.984 165.396 65.632C165.628 65.28 165.952 65.008 166.368 64.816C166.792 64.624 167.276 64.528 167.82 64.528C168.604 64.528 169.244 64.724 169.74 65.116C170.244 65.508 170.528 66.028 170.592 66.676H169.392C169.352 66.356 169.184 66.076 168.888 65.836C168.592 65.588 168.2 65.464 167.712 65.464C167.256 65.464 166.884 65.584 166.596 65.824C166.308 66.056 166.164 66.384 166.164 66.808C166.164 67.112 166.248 67.36 166.416 67.552C166.592 67.744 166.804 67.892 167.052 67.996C167.308 68.092 167.664 68.204 168.12 68.332C168.672 68.484 169.116 68.636 169.452 68.788C169.788 68.932 170.076 69.16 170.316 69.472C170.556 69.776 170.676 70.192 170.676 70.72C170.676 71.128 170.568 71.512 170.352 71.872C170.136 72.232 169.816 72.524 169.392 72.748C168.968 72.972 168.468 73.084 167.892 73.084ZM173.615 67.324V71.2C173.615 71.52 173.683 71.748 173.819 71.884C173.955 72.012 174.191 72.076 174.527 72.076H175.331V73H174.347C173.739 73 173.283 72.86 172.979 72.58C172.675 72.3 172.523 71.84 172.523 71.2V67.324H171.671V66.424H172.523V64.768H173.615V66.424H175.331V67.324H173.615ZM177.782 71.488L176.438 74.716H175.706L176.582 71.488H177.782ZM181.825 68.812C181.825 67.996 182.009 67.264 182.377 66.616C182.745 65.96 183.245 65.448 183.877 65.08C184.517 64.712 185.225 64.528 186.001 64.528C186.913 64.528 187.709 64.748 188.389 65.188C189.069 65.628 189.565 66.252 189.877 67.06H188.569C188.337 66.556 188.001 66.168 187.561 65.896C187.129 65.624 186.609 65.488 186.001 65.488C185.417 65.488 184.893 65.624 184.429 65.896C183.965 66.168 183.601 66.556 183.337 67.06C183.073 67.556 182.941 68.14 182.941 68.812C182.941 69.476 183.073 70.06 183.337 70.564C183.601 71.06 183.965 71.444 184.429 71.716C184.893 71.988 185.417 72.124 186.001 72.124C186.609 72.124 187.129 71.992 187.561 71.728C188.001 71.456 188.337 71.068 188.569 70.564H189.877C189.565 71.364 189.069 71.984 188.389 72.424C187.709 72.856 186.913 73.072 186.001 73.072C185.225 73.072 184.517 72.892 183.877 72.532C183.245 72.164 182.745 71.656 182.377 71.008C182.009 70.36 181.825 69.628 181.825 68.812ZM191.094 69.688C191.094 69.016 191.23 68.428 191.502 67.924C191.774 67.412 192.146 67.016 192.618 66.736C193.098 66.456 193.63 66.316 194.214 66.316C194.79 66.316 195.29 66.44 195.714 66.688C196.138 66.936 196.454 67.248 196.662 67.624V66.424H197.766V73H196.662V71.776C196.446 72.16 196.122 72.48 195.69 72.736C195.266 72.984 194.77 73.108 194.202 73.108C193.618 73.108 193.09 72.964 192.618 72.676C192.146 72.388 191.774 71.984 191.502 71.464C191.23 70.944 191.094 70.352 191.094 69.688ZM196.662 69.7C196.662 69.204 196.562 68.772 196.362 68.404C196.162 68.036 195.89 67.756 195.546 67.564C195.21 67.364 194.838 67.264 194.43 67.264C194.022 67.264 193.65 67.36 193.314 67.552C192.978 67.744 192.71 68.024 192.51 68.392C192.31 68.76 192.21 69.192 192.21 69.688C192.21 70.192 192.31 70.632 192.51 71.008C192.71 71.376 192.978 71.66 193.314 71.86C193.65 72.052 194.022 72.148 194.43 72.148C194.838 72.148 195.21 72.052 195.546 71.86C195.89 71.66 196.162 71.376 196.362 71.008C196.562 70.632 196.662 70.196 196.662 69.7ZM200.176 65.356C199.968 65.356 199.792 65.284 199.648 65.14C199.504 64.996 199.432 64.82 199.432 64.612C199.432 64.404 199.504 64.228 199.648 64.084C199.792 63.94 199.968 63.868 200.176 63.868C200.376 63.868 200.544 63.94 200.68 64.084C200.824 64.228 200.896 64.404 200.896 64.612C200.896 64.82 200.824 64.996 200.68 65.14C200.544 65.284 200.376 65.356 200.176 65.356ZM200.704 66.424V73H199.612V66.424H200.704ZM203.657 67.492C203.849 67.116 204.121 66.824 204.473 66.616C204.833 66.408 205.269 66.304 205.781 66.304V67.432H205.493C204.269 67.432 203.657 68.096 203.657 69.424V73H202.565V66.424H203.657V67.492ZM210.245 66.304C211.045 66.304 211.693 66.548 212.189 67.036C212.685 67.516 212.933 68.212 212.933 69.124V73H211.853V69.28C211.853 68.624 211.689 68.124 211.361 67.78C211.033 67.428 210.585 67.252 210.017 67.252C209.441 67.252 208.981 67.432 208.637 67.792C208.301 68.152 208.133 68.676 208.133 69.364V73H207.041V66.424H208.133V67.36C208.349 67.024 208.641 66.764 209.009 66.58C209.385 66.396 209.797 66.304 210.245 66.304ZM217.045 73.108C216.541 73.108 216.089 73.024 215.689 72.856C215.289 72.68 214.973 72.44 214.741 72.136C214.509 71.824 214.381 71.468 214.357 71.068H215.485C215.517 71.396 215.669 71.664 215.941 71.872C216.221 72.08 216.585 72.184 217.033 72.184C217.449 72.184 217.777 72.092 218.017 71.908C218.257 71.724 218.377 71.492 218.377 71.212C218.377 70.924 218.249 70.712 217.993 70.576C217.737 70.432 217.341 70.292 216.805 70.156C216.317 70.028 215.917 69.9 215.605 69.772C215.301 69.636 215.037 69.44 214.813 69.184C214.597 68.92 214.489 68.576 214.489 68.152C214.489 67.816 214.589 67.508 214.789 67.228C214.989 66.948 215.273 66.728 215.641 66.568C216.009 66.4 216.429 66.316 216.901 66.316C217.629 66.316 218.217 66.5 218.665 66.868C219.113 67.236 219.353 67.74 219.385 68.38H218.293C218.269 68.036 218.129 67.76 217.873 67.552C217.625 67.344 217.289 67.24 216.865 67.24C216.473 67.24 216.161 67.324 215.929 67.492C215.697 67.66 215.581 67.88 215.581 68.152C215.581 68.368 215.649 68.548 215.785 68.692C215.929 68.828 216.105 68.94 216.313 69.028C216.529 69.108 216.825 69.2 217.201 69.304C217.673 69.432 218.057 69.56 218.353 69.688C218.649 69.808 218.901 69.992 219.109 70.24C219.325 70.488 219.437 70.812 219.445 71.212C219.445 71.572 219.345 71.896 219.145 72.184C218.945 72.472 218.661 72.7 218.293 72.868C217.933 73.028 217.517 73.108 217.045 73.108Z" fill="black"/>
</svg>
