<svg width="216" height="72" viewBox="0 0 216 72" fill="none" xmlns="http://www.w3.org/2000/svg">
<path d="M10.272 9.272V21.632C10.272 23.008 9.848 24.112 9 24.944C8.152 25.76 7.032 26.168 5.64 26.168C4.232 26.168 3.104 25.752 2.256 24.92C1.408 24.072 0.984 22.92 0.984 21.464H3.168C3.184 22.28 3.392 22.944 3.792 23.456C4.208 23.968 4.824 24.224 5.64 24.224C6.456 24.224 7.064 23.984 7.464 23.504C7.864 23.008 8.064 22.384 8.064 21.632V9.272H10.272ZM20.3106 26.216C19.0786 26.216 17.9586 25.936 16.9506 25.376C15.9586 24.816 15.1746 24.024 14.5986 23C14.0386 21.96 13.7586 20.76 13.7586 19.4C13.7586 18.056 14.0466 16.872 14.6226 15.848C15.2146 14.808 16.0146 14.016 17.0226 13.472C18.0306 12.912 19.1586 12.632 20.4066 12.632C21.6546 12.632 22.7826 12.912 23.7906 13.472C24.7986 14.016 25.5906 14.8 26.1666 15.824C26.7586 16.848 27.0546 18.04 27.0546 19.4C27.0546 20.76 26.7506 21.96 26.1426 23C25.5506 24.024 24.7426 24.816 23.7186 25.376C22.6946 25.936 21.5586 26.216 20.3106 26.216ZM20.3106 24.296C21.0946 24.296 21.8306 24.112 22.5186 23.744C23.2066 23.376 23.7586 22.824 24.1746 22.088C24.6066 21.352 24.8226 20.456 24.8226 19.4C24.8226 18.344 24.6146 17.448 24.1986 16.712C23.7826 15.976 23.2386 15.432 22.5666 15.08C21.8946 14.712 21.1666 14.528 20.3826 14.528C19.5826 14.528 18.8466 14.712 18.1746 15.08C17.5186 15.432 16.9906 15.976 16.5906 16.712C16.1906 17.448 15.9906 18.344 15.9906 19.4C15.9906 20.472 16.1826 21.376 16.5666 22.112C16.9666 22.848 17.4946 23.4 18.1506 23.768C18.8066 24.12 19.5266 24.296 20.3106 24.296ZM41.9261 18.92C41.9261 19.336 41.9021 19.776 41.8541 20.24H31.3421C31.4221 21.536 31.8621 22.552 32.6621 23.288C33.4781 24.008 34.4621 24.368 35.6141 24.368C36.5581 24.368 37.3421 24.152 37.9661 23.72C38.6061 23.272 39.0541 22.68 39.3101 21.944H41.6621C41.3101 23.208 40.6061 24.24 39.5501 25.04C38.4941 25.824 37.1821 26.216 35.6141 26.216C34.3661 26.216 33.2461 25.936 32.2541 25.376C31.2781 24.816 30.5101 24.024 29.9501 23C29.3901 21.96 29.1101 20.76 29.1101 19.4C29.1101 18.04 29.3821 16.848 29.9261 15.824C30.4701 14.8 31.2301 14.016 32.2061 13.472C33.1981 12.912 34.3341 12.632 35.6141 12.632C36.8621 12.632 37.9661 12.904 38.9261 13.448C39.8861 13.992 40.6221 14.744 41.1341 15.704C41.6621 16.648 41.9261 17.72 41.9261 18.92ZM39.6701 18.464C39.6701 17.632 39.4861 16.92 39.1181 16.328C38.7501 15.72 38.2461 15.264 37.6061 14.96C36.9821 14.64 36.2861 14.48 35.5181 14.48C34.4141 14.48 33.4701 14.832 32.6861 15.536C31.9181 16.24 31.4781 17.216 31.3661 18.464H39.6701ZM61.0954 22.28H53.7994L52.4554 26H50.1514L56.1994 9.368H58.7194L64.7434 26H62.4394L61.0954 22.28ZM60.4714 20.504L57.4474 12.056L54.4234 20.504H60.4714ZM73.7873 12.608C75.3873 12.608 76.6833 13.096 77.6753 14.072C78.6673 15.032 79.1633 16.424 79.1633 18.248V26H77.0033V18.56C77.0033 17.248 76.6753 16.248 76.0193 15.56C75.3633 14.856 74.4673 14.504 73.3313 14.504C72.1793 14.504 71.2593 14.864 70.5713 15.584C69.8993 16.304 69.5633 17.352 69.5633 18.728V26H67.3793V12.848H69.5633V14.72C69.9953 14.048 70.5793 13.528 71.3153 13.16C72.0673 12.792 72.8913 12.608 73.7873 12.608ZM81.9148 19.376C81.9148 18.032 82.1868 16.856 82.7308 15.848C83.2748 14.824 84.0188 14.032 84.9628 13.472C85.9228 12.912 86.9948 12.632 88.1788 12.632C89.2028 12.632 90.1548 12.872 91.0348 13.352C91.9148 13.816 92.5868 14.432 93.0508 15.2V8.24H95.2588V26H93.0508V23.528C92.6188 24.312 91.9788 24.96 91.1308 25.472C90.2828 25.968 89.2908 26.216 88.1548 26.216C86.9868 26.216 85.9228 25.928 84.9628 25.352C84.0188 24.776 83.2748 23.968 82.7308 22.928C82.1868 21.888 81.9148 20.704 81.9148 19.376ZM93.0508 19.4C93.0508 18.408 92.8508 17.544 92.4508 16.808C92.0508 16.072 91.5068 15.512 90.8188 15.128C90.1468 14.728 89.4028 14.528 88.5868 14.528C87.7708 14.528 87.0268 14.72 86.3548 15.104C85.6828 15.488 85.1468 16.048 84.7468 16.784C84.3468 17.52 84.1468 18.384 84.1468 19.376C84.1468 20.384 84.3468 21.264 84.7468 22.016C85.1468 22.752 85.6828 23.32 86.3548 23.72C87.0268 24.104 87.7708 24.296 88.5868 24.296C89.4028 24.296 90.1468 24.104 90.8188 23.72C91.5068 23.32 92.0508 22.752 92.4508 22.016C92.8508 21.264 93.0508 20.392 93.0508 19.4ZM101.134 14.984C101.518 14.232 102.062 13.648 102.766 13.232C103.486 12.816 104.358 12.608 105.382 12.608V14.864H104.806C102.358 14.864 101.134 16.192 101.134 18.848V26H98.9496V12.848H101.134V14.984ZM119.903 18.92C119.903 19.336 119.879 19.776 119.831 20.24H109.319C109.399 21.536 109.839 22.552 110.639 23.288C111.455 24.008 112.439 24.368 113.591 24.368C114.535 24.368 115.319 24.152 115.943 23.72C116.583 23.272 117.031 22.68 117.287 21.944H119.639C119.287 23.208 118.583 24.24 117.527 25.04C116.471 25.824 115.159 26.216 113.591 26.216C112.343 26.216 111.223 25.936 110.231 25.376C109.255 24.816 108.487 24.024 107.927 23C107.367 21.96 107.087 20.76 107.087 19.4C107.087 18.04 107.359 16.848 107.903 15.824C108.447 14.8 109.207 14.016 110.183 13.472C111.175 12.912 112.311 12.632 113.591 12.632C114.839 12.632 115.943 12.904 116.903 13.448C117.863 13.992 118.599 14.744 119.111 15.704C119.639 16.648 119.903 17.72 119.903 18.92ZM117.647 18.464C117.647 17.632 117.463 16.92 117.095 16.328C116.727 15.72 116.223 15.264 115.583 14.96C114.959 14.64 114.263 14.48 113.495 14.48C112.391 14.48 111.447 14.832 110.663 15.536C109.895 16.24 109.455 17.216 109.343 18.464H117.647ZM140.306 12.848L136.202 26H133.946L130.778 15.56L127.61 26H125.354L121.226 12.848H123.458L126.482 23.888L129.746 12.848H131.978L135.17 23.912L138.146 12.848H140.306ZM154.175 26.168C153.071 26.168 152.079 25.976 151.199 25.592C150.335 25.192 149.655 24.648 149.159 23.96C148.663 23.256 148.407 22.448 148.391 21.536H150.719C150.799 22.32 151.119 22.984 151.679 23.528C152.255 24.056 153.087 24.32 154.175 24.32C155.215 24.32 156.031 24.064 156.623 23.552C157.231 23.024 157.535 22.352 157.535 21.536C157.535 20.896 157.359 20.376 157.007 19.976C156.655 19.576 156.215 19.272 155.687 19.064C155.159 18.856 154.447 18.632 153.551 18.392C152.447 18.104 151.559 17.816 150.887 17.528C150.231 17.24 149.663 16.792 149.183 16.184C148.719 15.56 148.487 14.728 148.487 13.688C148.487 12.776 148.719 11.968 149.183 11.264C149.647 10.56 150.295 10.016 151.127 9.632C151.975 9.248 152.943 9.056 154.031 9.056C155.599 9.056 156.879 9.448 157.871 10.232C158.879 11.016 159.447 12.056 159.575 13.352H157.175C157.095 12.712 156.759 12.152 156.167 11.672C155.575 11.176 154.791 10.928 153.815 10.928C152.903 10.928 152.159 11.168 151.583 11.648C151.007 12.112 150.719 12.768 150.719 13.616C150.719 14.224 150.887 14.72 151.223 15.104C151.575 15.488 151.999 15.784 152.495 15.992C153.007 16.184 153.719 16.408 154.631 16.664C155.735 16.968 156.623 17.272 157.295 17.576C157.967 17.864 158.543 18.32 159.023 18.944C159.503 19.552 159.743 20.384 159.743 21.44C159.743 22.256 159.527 23.024 159.095 23.744C158.663 24.464 158.023 25.048 157.175 25.496C156.327 25.944 155.327 26.168 154.175 26.168ZM178.773 12.608C179.797 12.608 180.709 12.824 181.509 13.256C182.309 13.672 182.941 14.304 183.405 15.152C183.869 16 184.101 17.032 184.101 18.248V26H181.941V18.56C181.941 17.248 181.613 16.248 180.957 15.56C180.317 14.856 179.445 14.504 178.341 14.504C177.205 14.504 176.301 14.872 175.629 15.608C174.957 16.328 174.621 17.376 174.621 18.752V26H172.461V18.56C172.461 17.248 172.133 16.248 171.477 15.56C170.837 14.856 169.965 14.504 168.861 14.504C167.725 14.504 166.821 14.872 166.149 15.608C165.477 16.328 165.141 17.376 165.141 18.752V26H162.957V12.848H165.141V14.744C165.573 14.056 166.149 13.528 166.869 13.16C167.605 12.792 168.413 12.608 169.293 12.608C170.397 12.608 171.373 12.856 172.221 13.352C173.069 13.848 173.701 14.576 174.117 15.536C174.485 14.608 175.093 13.888 175.941 13.376C176.789 12.864 177.733 12.608 178.773 12.608ZM188.812 10.712C188.396 10.712 188.044 10.568 187.756 10.28C187.468 9.992 187.324 9.64 187.324 9.224C187.324 8.808 187.468 8.456 187.756 8.168C188.044 7.88 188.396 7.736 188.812 7.736C189.212 7.736 189.548 7.88 189.82 8.168C190.108 8.456 190.252 8.808 190.252 9.224C190.252 9.64 190.108 9.992 189.82 10.28C189.548 10.568 189.212 10.712 188.812 10.712ZM189.868 12.848V26H187.684V12.848H189.868ZM196.254 14.648V22.4C196.254 23.04 196.39 23.496 196.662 23.768C196.934 24.024 197.406 24.152 198.078 24.152H199.686V26H197.718C196.502 26 195.59 25.72 194.982 25.16C194.374 24.6 194.07 23.68 194.07 22.4V14.648H192.366V12.848H194.07V9.536H196.254V12.848H199.686V14.648H196.254ZM208.86 12.608C209.852 12.608 210.748 12.824 211.548 13.256C212.348 13.672 212.972 14.304 213.42 15.152C213.884 16 214.116 17.032 214.116 18.248V26H211.956V18.56C211.956 17.248 211.628 16.248 210.972 15.56C210.316 14.856 209.42 14.504 208.284 14.504C207.132 14.504 206.212 14.864 205.524 15.584C204.852 16.304 204.516 17.352 204.516 18.728V26H202.332V8.24H204.516V14.72C204.948 14.048 205.54 13.528 206.292 13.16C207.06 12.792 207.916 12.608 208.86 12.608Z" fill="black"/>
<path d="M3.528 38.636C4.44 38.636 5.228 38.808 5.892 39.152C6.564 39.488 7.076 39.972 7.428 40.604C7.788 41.236 7.968 41.98 7.968 42.836C7.968 43.692 7.788 44.436 7.428 45.068C7.076 45.692 6.564 46.172 5.892 46.508C5.228 46.836 4.44 47 3.528 47H0.924V38.636H3.528ZM3.528 46.1C4.608 46.1 5.432 45.816 6 45.248C6.568 44.672 6.852 43.868 6.852 42.836C6.852 41.796 6.564 40.984 5.988 40.4C5.42 39.816 4.6 39.524 3.528 39.524H2.016V46.1H3.528ZM9.75638 47.072C9.54838 47.072 9.37238 47 9.22838 46.856C9.08438 46.712 9.01238 46.536 9.01238 46.328C9.01238 46.12 9.08438 45.944 9.22838 45.8C9.37238 45.656 9.54838 45.584 9.75638 45.584C9.95638 45.584 10.1244 45.656 10.2604 45.8C10.4044 45.944 10.4764 46.12 10.4764 46.328C10.4764 46.536 10.4044 46.712 10.2604 46.856C10.1244 47 9.95638 47.072 9.75638 47.072ZM15.7199 47.084C14.9439 47.084 14.2359 46.904 13.5959 46.544C12.9559 46.176 12.4479 45.668 12.0719 45.02C11.7039 44.364 11.5199 43.628 11.5199 42.812C11.5199 41.996 11.7039 41.264 12.0719 40.616C12.4479 39.96 12.9559 39.452 13.5959 39.092C14.2359 38.724 14.9439 38.54 15.7199 38.54C16.5039 38.54 17.2159 38.724 17.8559 39.092C18.4959 39.452 18.9999 39.956 19.3679 40.604C19.7359 41.252 19.9199 41.988 19.9199 42.812C19.9199 43.636 19.7359 44.372 19.3679 45.02C18.9999 45.668 18.4959 46.176 17.8559 46.544C17.2159 46.904 16.5039 47.084 15.7199 47.084ZM15.7199 46.136C16.3039 46.136 16.8279 46 17.2919 45.728C17.7639 45.456 18.1319 45.068 18.3959 44.564C18.6679 44.06 18.8039 43.476 18.8039 42.812C18.8039 42.14 18.6679 41.556 18.3959 41.06C18.1319 40.556 17.7679 40.168 17.3039 39.896C16.8399 39.624 16.3119 39.488 15.7199 39.488C15.1279 39.488 14.5999 39.624 14.1359 39.896C13.6719 40.168 13.3039 40.556 13.0319 41.06C12.7679 41.556 12.6359 42.14 12.6359 42.812C12.6359 43.476 12.7679 44.06 13.0319 44.564C13.3039 45.068 13.6719 45.456 14.1359 45.728C14.6079 46 15.1359 46.136 15.7199 46.136ZM21.7095 47.072C21.5015 47.072 21.3255 47 21.1815 46.856C21.0375 46.712 20.9655 46.536 20.9655 46.328C20.9655 46.12 21.0375 45.944 21.1815 45.8C21.3255 45.656 21.5015 45.584 21.7095 45.584C21.9095 45.584 22.0775 45.656 22.2135 45.8C22.3575 45.944 22.4295 46.12 22.4295 46.328C22.4295 46.536 22.3575 46.712 22.2135 46.856C22.0775 47 21.9095 47.072 21.7095 47.072ZM28.069 42.692C28.373 42.74 28.649 42.864 28.897 43.064C29.153 43.264 29.353 43.512 29.497 43.808C29.649 44.104 29.725 44.42 29.725 44.756C29.725 45.18 29.617 45.564 29.401 45.908C29.185 46.244 28.869 46.512 28.453 46.712C28.045 46.904 27.561 47 27.001 47H23.881V38.636H26.881C27.449 38.636 27.933 38.732 28.333 38.924C28.733 39.108 29.033 39.36 29.233 39.68C29.433 40 29.533 40.36 29.533 40.76C29.533 41.256 29.397 41.668 29.125 41.996C28.861 42.316 28.509 42.548 28.069 42.692ZM24.973 42.248H26.809C27.321 42.248 27.717 42.128 27.997 41.888C28.277 41.648 28.417 41.316 28.417 40.892C28.417 40.468 28.277 40.136 27.997 39.896C27.717 39.656 27.313 39.536 26.785 39.536H24.973V42.248ZM26.905 46.1C27.449 46.1 27.873 45.972 28.177 45.716C28.481 45.46 28.633 45.104 28.633 44.648C28.633 44.184 28.473 43.82 28.153 43.556C27.833 43.284 27.405 43.148 26.869 43.148H24.973V46.1H26.905ZM31.5884 47.072C31.3804 47.072 31.2044 47 31.0604 46.856C30.9164 46.712 30.8444 46.536 30.8444 46.328C30.8444 46.12 30.9164 45.944 31.0604 45.8C31.2044 45.656 31.3804 45.584 31.5884 45.584C31.7884 45.584 31.9564 45.656 32.0924 45.8C32.2364 45.944 32.3084 46.12 32.3084 46.328C32.3084 46.536 32.2364 46.712 32.0924 46.856C31.9564 47 31.7884 47.072 31.5884 47.072ZM39.8464 46.124C40.8624 45.308 41.6584 44.64 42.2344 44.12C42.8104 43.592 43.2944 43.044 43.6864 42.476C44.0864 41.9 44.2864 41.336 44.2864 40.784C44.2864 40.264 44.1584 39.856 43.9024 39.56C43.6544 39.256 43.2504 39.104 42.6904 39.104C42.1464 39.104 41.7224 39.276 41.4184 39.62C41.1224 39.956 40.9624 40.408 40.9384 40.976H39.8824C39.9144 40.08 40.1864 39.388 40.6984 38.9C41.2104 38.412 41.8704 38.168 42.6784 38.168C43.5024 38.168 44.1544 38.396 44.6344 38.852C45.1224 39.308 45.3664 39.936 45.3664 40.736C45.3664 41.4 45.1664 42.048 44.7664 42.68C44.3744 43.304 43.9264 43.856 43.4224 44.336C42.9184 44.808 42.2744 45.36 41.4904 45.992H45.6184V46.904H39.8464V46.124ZM46.6167 45.068V44.24L50.8287 38.408H52.1367V44.12H53.3367V45.068H52.1367V47H51.0567V45.068H46.6167ZM51.1047 39.548L47.8767 44.12H51.1047V39.548ZM58.6876 35.696L55.3996 49.04H54.3196L57.5956 35.696H58.6876ZM60.1346 42.572C60.1346 41.196 60.3586 40.124 60.8066 39.356C61.2546 38.58 62.0386 38.192 63.1586 38.192C64.2706 38.192 65.0506 38.58 65.4986 39.356C65.9466 40.124 66.1706 41.196 66.1706 42.572C66.1706 43.972 65.9466 45.06 65.4986 45.836C65.0506 46.612 64.2706 47 63.1586 47C62.0386 47 61.2546 46.612 60.8066 45.836C60.3586 45.06 60.1346 43.972 60.1346 42.572ZM65.0906 42.572C65.0906 41.876 65.0426 41.288 64.9466 40.808C64.8586 40.32 64.6706 39.928 64.3826 39.632C64.1026 39.336 63.6946 39.188 63.1586 39.188C62.6146 39.188 62.1986 39.336 61.9106 39.632C61.6306 39.928 61.4426 40.32 61.3466 40.808C61.2586 41.288 61.2146 41.876 61.2146 42.572C61.2146 43.292 61.2586 43.896 61.3466 44.384C61.4426 44.872 61.6306 45.264 61.9106 45.56C62.1986 45.856 62.6146 46.004 63.1586 46.004C63.6946 46.004 64.1026 45.856 64.3826 45.56C64.6706 45.264 64.8586 44.872 64.9466 44.384C65.0426 43.896 65.0906 43.292 65.0906 42.572ZM69.2538 42.488C68.8058 42.312 68.4618 42.056 68.2218 41.72C67.9818 41.384 67.8618 40.976 67.8618 40.496C67.8618 40.064 67.9698 39.676 68.1858 39.332C68.4018 38.98 68.7218 38.704 69.1458 38.504C69.5778 38.296 70.0978 38.192 70.7058 38.192C71.3138 38.192 71.8298 38.296 72.2538 38.504C72.6858 38.704 73.0098 38.98 73.2258 39.332C73.4498 39.676 73.5618 40.064 73.5618 40.496C73.5618 40.96 73.4378 41.368 73.1898 41.72C72.9418 42.064 72.6018 42.32 72.1698 42.488C72.6658 42.64 73.0578 42.908 73.3458 43.292C73.6418 43.668 73.7898 44.124 73.7898 44.66C73.7898 45.18 73.6618 45.636 73.4058 46.028C73.1498 46.412 72.7858 46.712 72.3138 46.928C71.8498 47.136 71.3138 47.24 70.7058 47.24C70.0978 47.24 69.5618 47.136 69.0978 46.928C68.6418 46.712 68.2858 46.412 68.0298 46.028C67.7738 45.636 67.6458 45.18 67.6458 44.66C67.6458 44.124 67.7898 43.664 68.0778 43.28C68.3658 42.896 68.7578 42.632 69.2538 42.488ZM72.5058 40.628C72.5058 40.14 72.3458 39.764 72.0258 39.5C71.7058 39.236 71.2658 39.104 70.7058 39.104C70.1538 39.104 69.7178 39.236 69.3978 39.5C69.0778 39.764 68.9178 40.144 68.9178 40.64C68.9178 41.088 69.0818 41.448 69.4098 41.72C69.7458 41.992 70.1778 42.128 70.7058 42.128C71.2418 42.128 71.6738 41.992 72.0018 41.72C72.3378 41.44 72.5058 41.076 72.5058 40.628ZM70.7058 42.968C70.1138 42.968 69.6298 43.108 69.2538 43.388C68.8778 43.66 68.6898 44.072 68.6898 44.624C68.6898 45.136 68.8698 45.548 69.2298 45.86C69.5978 46.172 70.0898 46.328 70.7058 46.328C71.3218 46.328 71.8098 46.172 72.1698 45.86C72.5298 45.548 72.7098 45.136 72.7098 44.624C72.7098 44.088 72.5258 43.68 72.1578 43.4C71.7898 43.112 71.3058 42.968 70.7058 42.968ZM79.5001 35.696L76.2121 49.04H75.1321L78.4081 35.696H79.5001ZM80.6591 39.32V38.324H82.9151V47H81.8111V39.32H80.6591ZM86.1949 44.672C86.2749 45.128 86.4589 45.48 86.7469 45.728C87.0429 45.976 87.4389 46.1 87.9349 46.1C88.5989 46.1 89.0869 45.84 89.3989 45.32C89.7189 44.8 89.8709 43.924 89.8549 42.692C89.6869 43.052 89.4069 43.336 89.0149 43.544C88.6229 43.744 88.1869 43.844 87.7069 43.844C87.1709 43.844 86.6909 43.736 86.2669 43.52C85.8509 43.296 85.5229 42.972 85.2829 42.548C85.0429 42.124 84.9229 41.612 84.9229 41.012C84.9229 40.156 85.1709 39.468 85.6669 38.948C86.1629 38.42 86.8669 38.156 87.7789 38.156C88.8989 38.156 89.6829 38.52 90.1309 39.248C90.5869 39.976 90.8149 41.06 90.8149 42.5C90.8149 43.508 90.7229 44.34 90.5389 44.996C90.3629 45.652 90.0589 46.152 89.6269 46.496C89.2029 46.84 88.6189 47.012 87.8749 47.012C87.0589 47.012 86.4229 46.792 85.9669 46.352C85.5109 45.912 85.2509 45.352 85.1869 44.672H86.1949ZM87.8869 42.92C88.4229 42.92 88.8629 42.756 89.2069 42.428C89.5509 42.092 89.7229 41.64 89.7229 41.072C89.7229 40.472 89.5549 39.988 89.2189 39.62C88.8829 39.252 88.4109 39.068 87.8029 39.068C87.2429 39.068 86.7949 39.244 86.4589 39.596C86.1309 39.948 85.9669 40.412 85.9669 40.988C85.9669 41.572 86.1309 42.04 86.4589 42.392C86.7869 42.744 87.2629 42.92 87.8869 42.92ZM97.6895 39.176L94.3535 47H93.2495L96.6335 39.284H92.0015V38.348H97.6895V39.176ZM104.432 39.272H100.22V42.008C100.404 41.752 100.676 41.544 101.036 41.384C101.396 41.216 101.784 41.132 102.2 41.132C102.864 41.132 103.404 41.272 103.82 41.552C104.236 41.824 104.532 42.18 104.708 42.62C104.892 43.052 104.984 43.512 104.984 44C104.984 44.576 104.876 45.092 104.66 45.548C104.444 46.004 104.112 46.364 103.664 46.628C103.224 46.892 102.676 47.024 102.02 47.024C101.18 47.024 100.5 46.808 99.9803 46.376C99.4603 45.944 99.1443 45.368 99.0323 44.648H100.1C100.204 45.104 100.424 45.46 100.76 45.716C101.096 45.972 101.52 46.1 102.032 46.1C102.664 46.1 103.14 45.912 103.46 45.536C103.78 45.152 103.94 44.648 103.94 44.024C103.94 43.4 103.78 42.92 103.46 42.584C103.14 42.24 102.668 42.068 102.044 42.068C101.62 42.068 101.248 42.172 100.928 42.38C100.616 42.58 100.388 42.856 100.244 43.208H99.2123V38.312H104.432V39.272Z" fill="black"/>
<path d="M2.016 59.524V62.32H5.064V63.22H2.016V66.1H5.424V67H0.924V58.624H5.424V59.524H2.016ZM10.2803 60.304C11.0803 60.304 11.7283 60.548 12.2243 61.036C12.7203 61.516 12.9683 62.212 12.9683 63.124V67H11.8883V63.28C11.8883 62.624 11.7243 62.124 11.3963 61.78C11.0683 61.428 10.6203 61.252 10.0523 61.252C9.47634 61.252 9.01634 61.432 8.67234 61.792C8.33634 62.152 8.16834 62.676 8.16834 63.364V67H7.07634V60.424H8.16834V61.36C8.38434 61.024 8.67634 60.764 9.04434 60.58C9.42034 60.396 9.83234 60.304 10.2803 60.304ZM14.3441 63.688C14.3441 63.016 14.4801 62.428 14.7521 61.924C15.0241 61.412 15.3961 61.016 15.8681 60.736C16.3481 60.456 16.8841 60.316 17.4761 60.316C18.0441 60.316 18.5401 60.444 18.9641 60.7C19.3961 60.948 19.7121 61.256 19.9121 61.624V60.424H21.0161V70.12H19.9121V65.788C19.7041 66.156 19.3841 66.468 18.9521 66.724C18.5201 66.98 18.0161 67.108 17.4401 67.108C16.8641 67.108 16.3401 66.964 15.8681 66.676C15.3961 66.388 15.0241 65.984 14.7521 65.464C14.4801 64.944 14.3441 64.352 14.3441 63.688ZM19.9121 63.7C19.9121 63.204 19.8121 62.772 19.6121 62.404C19.4121 62.036 19.1401 61.756 18.7961 61.564C18.4601 61.364 18.0881 61.264 17.6801 61.264C17.2721 61.264 16.9001 61.36 16.5641 61.552C16.2281 61.744 15.9601 62.024 15.7601 62.392C15.5601 62.76 15.4601 63.192 15.4601 63.688C15.4601 64.192 15.5601 64.632 15.7601 65.008C15.9601 65.376 16.2281 65.66 16.5641 65.86C16.9001 66.052 17.2721 66.148 17.6801 66.148C18.0881 66.148 18.4601 66.052 18.7961 65.86C19.1401 65.66 19.4121 65.376 19.6121 65.008C19.8121 64.632 19.9121 64.196 19.9121 63.7ZM28.6935 60.424V67H27.6015V66.028C27.3935 66.364 27.1015 66.628 26.7255 66.82C26.3575 67.004 25.9495 67.096 25.5015 67.096C24.9895 67.096 24.5295 66.992 24.1215 66.784C23.7135 66.568 23.3895 66.248 23.1495 65.824C22.9175 65.4 22.8015 64.884 22.8015 64.276V60.424H23.8815V64.132C23.8815 64.78 24.0455 65.28 24.3735 65.632C24.7015 65.976 25.1495 66.148 25.7175 66.148C26.3015 66.148 26.7615 65.968 27.0975 65.608C27.4335 65.248 27.6015 64.724 27.6015 64.036V60.424H28.6935ZM31.1013 59.356C30.8933 59.356 30.7173 59.284 30.5733 59.14C30.4293 58.996 30.3573 58.82 30.3573 58.612C30.3573 58.404 30.4293 58.228 30.5733 58.084C30.7173 57.94 30.8933 57.868 31.1013 57.868C31.3013 57.868 31.4693 57.94 31.6053 58.084C31.7493 58.228 31.8213 58.404 31.8213 58.612C31.8213 58.82 31.7493 58.996 31.6053 59.14C31.4693 59.284 31.3013 59.356 31.1013 59.356ZM31.6293 60.424V67H30.5373V60.424H31.6293ZM34.5824 61.492C34.7744 61.116 35.0464 60.824 35.3984 60.616C35.7584 60.408 36.1944 60.304 36.7064 60.304V61.432H36.4184C35.1944 61.432 34.5824 62.096 34.5824 63.424V67H33.4904V60.424H34.5824V61.492ZM43.631 60.424L39.671 70.096H38.543L39.839 66.928L37.187 60.424H38.399L40.463 65.752L42.503 60.424H43.631ZM45.0767 67.072C44.8687 67.072 44.6927 67 44.5487 66.856C44.4047 66.712 44.3327 66.536 44.3327 66.328C44.3327 66.12 44.4047 65.944 44.5487 65.8C44.6927 65.656 44.8687 65.584 45.0767 65.584C45.2767 65.584 45.4447 65.656 45.5807 65.8C45.7247 65.944 45.7967 66.12 45.7967 66.328C45.7967 66.536 45.7247 66.712 45.5807 66.856C45.4447 67 45.2767 67.072 45.0767 67.072ZM45.0767 61.936C44.8687 61.936 44.6927 61.864 44.5487 61.72C44.4047 61.576 44.3327 61.4 44.3327 61.192C44.3327 60.984 44.4047 60.808 44.5487 60.664C44.6927 60.52 44.8687 60.448 45.0767 60.448C45.2767 60.448 45.4447 60.52 45.5807 60.664C45.7247 60.808 45.7967 60.984 45.7967 61.192C45.7967 61.4 45.7247 61.576 45.5807 61.72C45.4447 61.864 45.2767 61.936 45.0767 61.936ZM53.3698 66.124C54.3858 65.308 55.1818 64.64 55.7578 64.12C56.3338 63.592 56.8178 63.044 57.2098 62.476C57.6098 61.9 57.8098 61.336 57.8098 60.784C57.8098 60.264 57.6818 59.856 57.4258 59.56C57.1778 59.256 56.7738 59.104 56.2138 59.104C55.6698 59.104 55.2458 59.276 54.9418 59.62C54.6458 59.956 54.4858 60.408 54.4618 60.976H53.4058C53.4378 60.08 53.7098 59.388 54.2218 58.9C54.7338 58.412 55.3938 58.168 56.2018 58.168C57.0258 58.168 57.6778 58.396 58.1578 58.852C58.6458 59.308 58.8898 59.936 58.8898 60.736C58.8898 61.4 58.6898 62.048 58.2898 62.68C57.8978 63.304 57.4498 63.856 56.9458 64.336C56.4418 64.808 55.7978 65.36 55.0138 65.992H59.1418V66.904H53.3698V66.124ZM60.1402 65.068V64.24L64.3522 58.408H65.6602V64.12H66.8602V65.068H65.6602V67H64.5802V65.068H60.1402ZM64.6282 59.548L61.4002 64.12H64.6282V59.548ZM72.211 55.696L68.923 69.04H67.843L71.119 55.696H72.211ZM73.6581 62.572C73.6581 61.196 73.8821 60.124 74.3301 59.356C74.7781 58.58 75.5621 58.192 76.6821 58.192C77.7941 58.192 78.5741 58.58 79.0221 59.356C79.4701 60.124 79.6941 61.196 79.6941 62.572C79.6941 63.972 79.4701 65.06 79.0221 65.836C78.5741 66.612 77.7941 67 76.6821 67C75.5621 67 74.7781 66.612 74.3301 65.836C73.8821 65.06 73.6581 63.972 73.6581 62.572ZM78.6141 62.572C78.6141 61.876 78.5661 61.288 78.4701 60.808C78.3821 60.32 78.1941 59.928 77.9061 59.632C77.6261 59.336 77.2181 59.188 76.6821 59.188C76.1381 59.188 75.7221 59.336 75.4341 59.632C75.1541 59.928 74.9661 60.32 74.8701 60.808C74.7821 61.288 74.7381 61.876 74.7381 62.572C74.7381 63.292 74.7821 63.896 74.8701 64.384C74.9661 64.872 75.1541 65.264 75.4341 65.56C75.7221 65.856 76.1381 66.004 76.6821 66.004C77.2181 66.004 77.6261 65.856 77.9061 65.56C78.1941 65.264 78.3821 64.872 78.4701 64.384C78.5661 63.896 78.6141 63.292 78.6141 62.572ZM86.7252 59.272H82.5132V62.008C82.6972 61.752 82.9692 61.544 83.3292 61.384C83.6892 61.216 84.0772 61.132 84.4932 61.132C85.1572 61.132 85.6972 61.272 86.1132 61.552C86.5292 61.824 86.8252 62.18 87.0012 62.62C87.1852 63.052 87.2772 63.512 87.2772 64C87.2772 64.576 87.1692 65.092 86.9532 65.548C86.7372 66.004 86.4052 66.364 85.9572 66.628C85.5172 66.892 84.9692 67.024 84.3132 67.024C83.4732 67.024 82.7932 66.808 82.2732 66.376C81.7532 65.944 81.4372 65.368 81.3252 64.648H82.3932C82.4972 65.104 82.7172 65.46 83.0532 65.716C83.3892 65.972 83.8132 66.1 84.3252 66.1C84.9572 66.1 85.4332 65.912 85.7532 65.536C86.0732 65.152 86.2332 64.648 86.2332 64.024C86.2332 63.4 86.0732 62.92 85.7532 62.584C85.4332 62.24 84.9612 62.068 84.3372 62.068C83.9132 62.068 83.5412 62.172 83.2212 62.38C82.9092 62.58 82.6812 62.856 82.5372 63.208H81.5052V58.312H86.7252V59.272ZM92.9884 55.696L89.7004 69.04H88.6204L91.8964 55.696H92.9884ZM94.3034 66.124C95.3194 65.308 96.1154 64.64 96.6914 64.12C97.2674 63.592 97.7514 63.044 98.1434 62.476C98.5434 61.9 98.7434 61.336 98.7434 60.784C98.7434 60.264 98.6154 59.856 98.3594 59.56C98.1114 59.256 97.7074 59.104 97.1474 59.104C96.6034 59.104 96.1794 59.276 95.8754 59.62C95.5794 59.956 95.4194 60.408 95.3954 60.976H94.3394C94.3714 60.08 94.6434 59.388 95.1554 58.9C95.6674 58.412 96.3274 58.168 97.1354 58.168C97.9594 58.168 98.6114 58.396 99.0914 58.852C99.5794 59.308 99.8234 59.936 99.8234 60.736C99.8234 61.4 99.6234 62.048 99.2234 62.68C98.8314 63.304 98.3834 63.856 97.8794 64.336C97.3754 64.808 96.7314 65.36 95.9474 65.992H100.075V66.904H94.3034V66.124ZM101.338 62.572C101.338 61.196 101.562 60.124 102.01 59.356C102.458 58.58 103.242 58.192 104.362 58.192C105.474 58.192 106.254 58.58 106.702 59.356C107.15 60.124 107.374 61.196 107.374 62.572C107.374 63.972 107.15 65.06 106.702 65.836C106.254 66.612 105.474 67 104.362 67C103.242 67 102.458 66.612 102.01 65.836C101.562 65.06 101.338 63.972 101.338 62.572ZM106.294 62.572C106.294 61.876 106.246 61.288 106.15 60.808C106.062 60.32 105.874 59.928 105.586 59.632C105.306 59.336 104.898 59.188 104.362 59.188C103.818 59.188 103.402 59.336 103.114 59.632C102.834 59.928 102.646 60.32 102.55 60.808C102.462 61.288 102.418 61.876 102.418 62.572C102.418 63.292 102.462 63.896 102.55 64.384C102.646 64.872 102.834 65.264 103.114 65.56C103.402 65.856 103.818 66.004 104.362 66.004C104.898 66.004 105.306 65.856 105.586 65.56C105.874 65.264 106.062 64.872 106.15 64.384C106.246 63.896 106.294 63.292 106.294 62.572ZM108.741 66.124C109.757 65.308 110.553 64.64 111.129 64.12C111.705 63.592 112.189 63.044 112.581 62.476C112.981 61.9 113.181 61.336 113.181 60.784C113.181 60.264 113.053 59.856 112.797 59.56C112.549 59.256 112.145 59.104 111.585 59.104C111.041 59.104 110.617 59.276 110.313 59.62C110.017 59.956 109.857 60.408 109.833 60.976H108.777C108.809 60.08 109.081 59.388 109.593 58.9C110.105 58.412 110.765 58.168 111.573 58.168C112.397 58.168 113.049 58.396 113.529 58.852C114.017 59.308 114.261 59.936 114.261 60.736C114.261 61.4 114.061 62.048 113.661 62.68C113.269 63.304 112.821 63.856 112.317 64.336C111.813 64.808 111.169 65.36 110.385 65.992H114.513V66.904H108.741V66.124ZM115.775 62.572C115.775 61.196 115.999 60.124 116.447 59.356C116.895 58.58 117.679 58.192 118.799 58.192C119.911 58.192 120.691 58.58 121.139 59.356C121.587 60.124 121.811 61.196 121.811 62.572C121.811 63.972 121.587 65.06 121.139 65.836C120.691 66.612 119.911 67 118.799 67C117.679 67 116.895 66.612 116.447 65.836C115.999 65.06 115.775 63.972 115.775 62.572ZM120.731 62.572C120.731 61.876 120.683 61.288 120.587 60.808C120.499 60.32 120.311 59.928 120.023 59.632C119.743 59.336 119.335 59.188 118.799 59.188C118.255 59.188 117.839 59.336 117.551 59.632C117.271 59.928 117.083 60.32 116.987 60.808C116.899 61.288 116.855 61.876 116.855 62.572C116.855 63.292 116.899 63.896 116.987 64.384C117.083 64.872 117.271 65.264 117.551 65.56C117.839 65.856 118.255 66.004 118.799 66.004C119.335 66.004 119.743 65.856 120.023 65.56C120.311 65.264 120.499 64.872 120.587 64.384C120.683 63.896 120.731 63.292 120.731 62.572Z" fill="black"/>
</svg>
