<svg width="23" height="23" viewBox="0 0 24 24" fill="none" xmlns="http://www.w3.org/2000/svg">
<g clip-path="url(#clip0)">
<path d="M14.8029 0.934296H11.9999V2.68611H13.9269V5.98536C13.9269 8.88317 11.5692 11.2408 8.67143 11.2408C5.77362 11.2408 3.416 8.88322 3.416 5.9854V2.68611H5.28462V0.934296H2.54009C2.05629 0.934296 1.66418 1.32641 1.66418 1.8102V5.9854C1.66418 9.84936 4.80753 12.9927 8.67148 12.9927C12.5354 12.9927 15.6788 9.84936 15.6788 5.9854V1.8102C15.6788 1.32641 15.2867 0.934296 14.8029 0.934296Z" fill="#EAEAEA"/>
<path d="M18.2189 13.7226V17.8686C18.2189 20.2835 16.2542 22.2482 13.8393 22.2482C11.4244 22.2482 9.4597 20.2835 9.4597 17.8686V12.146H7.70789V17.8686C7.70789 21.2493 10.4582 24 13.8393 24C17.22 24 19.9707 21.2493 19.9707 17.8686V13.7226H18.2189Z" fill="#EAEAEA"/>
<path d="M19.0951 8.05838C17.3076 8.05838 15.8539 9.51211 15.8539 11.2993C15.8539 13.0861 17.3076 14.5402 19.0948 14.5402C20.8819 14.5402 22.3357 13.0861 22.3359 11.2993C22.3359 9.51211 20.8819 8.05838 19.0951 8.05838ZM19.0948 12.7883C18.2735 12.7883 17.6054 12.1203 17.6054 11.2993C17.6054 10.4783 18.2734 9.81028 19.0948 9.81028C19.9158 9.81028 20.5838 10.4783 20.5838 11.2993C20.5838 12.1203 19.9158 12.7883 19.0948 12.7883Z" fill="#EAEAEA"/>
<path d="M5.2553 0C4.7715 0 4.37939 0.392109 4.37939 0.875906V2.74453C4.37939 3.22833 4.7715 3.62044 5.2553 3.62044C5.73909 3.62044 6.1312 3.22833 6.1312 2.74453V0.875906C6.1312 0.392109 5.73909 0 5.2553 0Z" fill="#EAEAEA"/>
<path d="M12.0291 0C11.5453 0 11.1532 0.392109 11.1532 0.875906V2.74453C11.1532 3.22833 11.5453 3.62044 12.0291 3.62044C12.5129 3.62044 12.905 3.22833 12.905 2.74453V0.875906C12.905 0.392109 12.5129 0 12.0291 0Z" fill="#EAEAEA"/>
</g>
<defs>
<clipPath id="clip0">
<rect width="23" height="23" fill="white"/>
</clipPath>
</defs>
</svg>
