<svg width="32" height="32" viewBox="0 0 40 40" fill="none" xmlns="http://www.w3.org/2000/svg">
<circle cx="20" cy="20" r="20" fill="white"/>
<path d="M19.8455 16.3684L22.7273 19.1958C22.7273 19.1511 22.7273 19.0974 22.7273 19.0526C22.7273 18.3407 22.4399 17.658 21.9285 17.1546C21.417 16.6512 20.7233 16.3684 20 16.3684C19.9455 16.3684 19.9 16.3684 19.8455 16.3684ZM15.9364 17.0842L17.3455 18.4711C17.3 18.6589 17.2727 18.8468 17.2727 19.0526C17.2727 19.7645 17.5601 20.4473 18.0715 20.9507C18.583 21.454 19.2767 21.7368 20 21.7368C20.2 21.7368 20.4 21.71 20.5909 21.6653L22 23.0521C21.3909 23.3474 20.7182 23.5263 20 23.5263C18.7945 23.5263 17.6383 23.055 16.7859 22.216C15.9334 21.377 15.4545 20.2391 15.4545 19.0526C15.4545 18.3458 15.6364 17.6837 15.9364 17.0842ZM10.9091 12.1363L12.9818 14.1763L13.3909 14.5789C11.8909 15.7421 10.7091 17.2632 10 19.0526C11.5727 22.9805 15.4545 25.7632 20 25.7632C21.4091 25.7632 22.7545 25.4947 23.9818 25.0116L24.3727 25.3874L27.0273 28L28.1818 26.8637L12.0636 11L10.9091 12.1363ZM20 14.5789C21.2055 14.5789 22.3617 15.0503 23.2141 15.8893C24.0666 16.7282 24.5455 17.8661 24.5455 19.0526C24.5455 19.6253 24.4273 20.18 24.2182 20.6811L26.8818 23.3026C28.2455 22.1842 29.3364 20.7168 30 19.0526C28.4273 15.1247 24.5455 12.3421 20 12.3421C18.7273 12.3421 17.5091 12.5658 16.3636 12.9684L18.3364 14.8921C18.8545 14.6953 19.4091 14.5789 20 14.5789Z" fill="#333333"/>
</svg>
